<?xml version="1.0" encoding="UTF-8" standalone="no"?>
<!-- Generator: Adobe Illustrator 16.0.0, SVG Export Plug-In . SVG Version: 6.00 Build 0)  -->

<svg
   xmlns:osb="http://www.openswatchbook.org/uri/2009/osb"
   xmlns:dc="http://purl.org/dc/elements/1.1/"
   xmlns:cc="http://creativecommons.org/ns#"
   xmlns:rdf="http://www.w3.org/1999/02/22-rdf-syntax-ns#"
   xmlns:svg="http://www.w3.org/2000/svg"
   xmlns="http://www.w3.org/2000/svg"
   xmlns:xlink="http://www.w3.org/1999/xlink"
   xmlns:sodipodi="http://sodipodi.sourceforge.net/DTD/sodipodi-0.dtd"
   xmlns:inkscape="http://www.inkscape.org/namespaces/inkscape"
   version="1.1"
   id="レイヤー_1"
   x="0px"
   y="0px"
   width="48px"
   height="48px"
   viewBox="0 0 48 48"
   enable-background="new 0 0 48 48"
   xml:space="preserve"
   inkscape:version="0.48.3.1 r9886"
   sodipodi:docname="moji_fullA.svg"><metadata
   id="metadata3221"><rdf:RDF><cc:Work
       rdf:about=""><dc:format>image/svg+xml</dc:format><dc:type
         rdf:resource="http://purl.org/dc/dcmitype/StillImage" /></cc:Work></rdf:RDF></metadata><defs
   id="defs3219"><linearGradient
   id="linearGradient5927"
   osb:paint="solid"><stop
     style="stop-color:#000000;stop-opacity:1;"
     offset="0"
     id="stop5929" /></linearGradient><linearGradient
   id="linearGradient5921"
   osb:paint="solid"><stop
     style="stop-color:#030723;stop-opacity:0.17647059;"
     offset="0"
     id="stop5923" /></linearGradient><linearGradient
   id="linearGradient3929"
   osb:paint="solid"><stop
     style="stop-color:#000000;stop-opacity:1;"
     offset="0"
     id="stop3931" /></linearGradient>
	
	

		
		
	
			
		
			
			
			
			
		<linearGradient
   inkscape:collect="always"
   xlink:href="#linearGradient3929"
   id="linearGradient3933"
   x1="33.966103"
   y1="40.906781"
   x2="35.186442"
   y2="40.906781"
   gradientUnits="userSpaceOnUse"
   gradientTransform="translate(-1.779661,1.6779661)" /><linearGradient
   inkscape:collect="always"
   xlink:href="#linearGradient5921"
   id="linearGradient5925"
   x1="33.466103"
   y1="40.576268"
   x2="35.686442"
   y2="40.576268"
   gradientUnits="userSpaceOnUse" /><linearGradient
   inkscape:collect="always"
   xlink:href="#linearGradient5927"
   id="linearGradient5931"
   x1="33.466103"
   y1="40.576268"
   x2="35.686442"
   y2="40.576268"
   gradientUnits="userSpaceOnUse" /></defs><sodipodi:namedview
   pagecolor="#ffffff"
   bordercolor="#666666"
   borderopacity="1"
   objecttolerance="10"
   gridtolerance="10"
   guidetolerance="10"
   inkscape:pageopacity="0"
   inkscape:pageshadow="2"
   inkscape:window-width="800"
   inkscape:window-height="480"
   id="namedview3217"
   showgrid="false"
   inkscape:zoom="4.9166667"
   inkscape:cx="-15.965928"
   inkscape:cy="33.729019"
   inkscape:window-x="74"
   inkscape:window-y="24"
   inkscape:window-maximized="0"
   inkscape:current-layer="レイヤー_1" />
<rect
   style="fill:none"
   y="0"
   x="0"
   id="rect3153"
   height="48"
   width="48" />
<g
   id="g3187">
</g>
<g
   id="g3189">
</g>
<g
   id="g3191">
</g>
<g
   id="g3193">
</g>
<g
   id="g3195">
</g>
<g
   id="g3197">
</g>
<g
   id="g3199">
</g>
<g
   id="g3201">
</g>
<g
   id="g3203">
</g>
<g
   id="g3205">
</g>
<g
   id="g3207">
</g>
<g
   id="g3209">
</g>
<g
   id="g3211">
</g>
<g
   id="g3213">
</g>
<g
   id="g3215">
</g>
<path
   inkscape:connector-curvature="0"
   id="path3159"
   d="m 13.390195,19.884523 h 5.469922 v 1.071184 h -5.469922 v 1.411576 c 0.394703,-0.05054 0.751764,-0.07582 1.071183,-0.07582 1.042147,0 1.991263,0.2479 2.848426,0.743698 1.218525,0.714125 1.827251,1.680447 1.827251,2.898974 0,1.462122 -0.76467,2.562884 -2.294012,3.30228 -0.748001,0.369968 -1.55838,0.604962 -2.432213,0.706057 -0.151105,-0.411911 -0.289841,-0.756067 -0.415674,-1.033543 1.167978,-0.151104 2.13,-0.482892 2.886067,-0.9959 0.722726,-0.495799 1.08409,-1.159374 1.08409,-1.991263 0,-1.08409 -0.53344,-1.835854 -1.600861,-2.255831 -0.848558,1.579888 -1.856827,2.881764 -3.024805,3.907241 -0.941051,0.831888 -1.810581,1.247565 -2.60913,1.247565 -0.546348,0 -0.9996641,-0.205957 -1.3610291,-0.61733 -0.369967,-0.411912 -0.554411,-0.92438 -0.554411,-1.537407 0,-1.142704 0.508166,-2.138604 1.5250391,-2.987163 0.521072,-0.453855 1.193251,-0.815219 2.016536,-1.084089 V 20.956245 H 9.1178259 v -1.071184 h 3.2388261 v -1.247565 h 1.033543 v 1.247028 z m -1.033543,7.247164 v -3.529209 c -1.647108,0.697452 -2.4703921,1.730995 -2.4703921,3.100628 0,0.361362 0.1177661,0.642602 0.3527601,0.844255 0.159709,0.151107 0.348457,0.226929 0.567319,0.226929 0.411911,0 0.928682,-0.214023 1.550313,-0.642603 z m 1.033543,-3.819052 v 2.91134 c 0.857163,-0.857161 1.546011,-1.819184 2.067084,-2.886066 -0.378033,-0.07582 -0.676482,-0.113464 -0.894805,-0.113464 -0.311353,0 -0.701755,0.02959 -1.172279,0.08819 z"
   style="fill:#f2f2f2;fill-opacity:1;fill-rule:nonzero" /><g
   id="g11314"
   transform="matrix(0.01475204,0,0,-0.01475204,30.259939,29.578871)"
   style="fill:#f2f2f2"><path
     id="path11316"
     d="m 502,649 q -81,-79 -137,-79 -50,0 -50,48 0,18 11,29 7,8 60,36 45,24 84,60 42,38 70,38 65,0 65,-62 V 60 q 0,-63 -52,-63 -51,0 -51,63 v 589 z"
     inkscape:connector-curvature="0"
     style="fill:#f2f2f2" /></g><g
   id="g3992"
   transform="matrix(0.00765888,0,0,-0.00765888,21.84071,29.623127)"
   style="fill:#ffff00;fill-opacity:1"><path
     id="path3994"
     d="M 984,388 H 371 L 228,0 H 39 L 601,1456 H 761 L 1314,0 H 1125 z M 426,537 h 504 l -250,690 z"
     inkscape:connector-curvature="0"
     style="fill:#ffff00;fill-opacity:1" /></g></svg>