<?xml version="1.0" encoding="UTF-8" standalone="no"?>
<!-- Generator: Adobe Illustrator 16.0.0, SVG Export Plug-In . SVG Version: 6.00 Build 0)  -->

<svg
   xmlns:osb="http://www.openswatchbook.org/uri/2009/osb"
   xmlns:dc="http://purl.org/dc/elements/1.1/"
   xmlns:cc="http://creativecommons.org/ns#"
   xmlns:rdf="http://www.w3.org/1999/02/22-rdf-syntax-ns#"
   xmlns:svg="http://www.w3.org/2000/svg"
   xmlns="http://www.w3.org/2000/svg"
   xmlns:xlink="http://www.w3.org/1999/xlink"
   xmlns:sodipodi="http://sodipodi.sourceforge.net/DTD/sodipodi-0.dtd"
   xmlns:inkscape="http://www.inkscape.org/namespaces/inkscape"
   version="1.1"
   id="レイヤー_1"
   x="0px"
   y="0px"
   width="48px"
   height="48px"
   viewBox="0 0 48 48"
   enable-background="new 0 0 48 48"
   xml:space="preserve"
   inkscape:version="0.48.3.1 r9886"
   sodipodi:docname="moji_fulla.svg"><metadata
   id="metadata3221"><rdf:RDF><cc:Work
       rdf:about=""><dc:format>image/svg+xml</dc:format><dc:type
         rdf:resource="http://purl.org/dc/dcmitype/StillImage" /></cc:Work></rdf:RDF></metadata><defs
   id="defs3219"><linearGradient
   id="linearGradient5927"
   osb:paint="solid"><stop
     style="stop-color:#000000;stop-opacity:1;"
     offset="0"
     id="stop5929" /></linearGradient><linearGradient
   id="linearGradient5921"
   osb:paint="solid"><stop
     style="stop-color:#030723;stop-opacity:0.17647059;"
     offset="0"
     id="stop5923" /></linearGradient><linearGradient
   id="linearGradient3929"
   osb:paint="solid"><stop
     style="stop-color:#000000;stop-opacity:1;"
     offset="0"
     id="stop3931" /></linearGradient>
	
	

		
		
	
			
		
			
			
			
			
		<linearGradient
   inkscape:collect="always"
   xlink:href="#linearGradient3929"
   id="linearGradient3933"
   x1="33.966103"
   y1="40.906781"
   x2="35.186442"
   y2="40.906781"
   gradientUnits="userSpaceOnUse"
   gradientTransform="translate(-1.779661,1.6779661)" /><linearGradient
   inkscape:collect="always"
   xlink:href="#linearGradient5921"
   id="linearGradient5925"
   x1="33.466103"
   y1="40.576268"
   x2="35.686442"
   y2="40.576268"
   gradientUnits="userSpaceOnUse" /><linearGradient
   inkscape:collect="always"
   xlink:href="#linearGradient5927"
   id="linearGradient5931"
   x1="33.466103"
   y1="40.576268"
   x2="35.686442"
   y2="40.576268"
   gradientUnits="userSpaceOnUse" /></defs><sodipodi:namedview
   pagecolor="#ffffff"
   bordercolor="#666666"
   borderopacity="1"
   objecttolerance="10"
   gridtolerance="10"
   guidetolerance="10"
   inkscape:pageopacity="0"
   inkscape:pageshadow="2"
   inkscape:window-width="800"
   inkscape:window-height="480"
   id="namedview3217"
   showgrid="false"
   inkscape:zoom="4.9166667"
   inkscape:cx="-15.762712"
   inkscape:cy="33.729019"
   inkscape:window-x="72"
   inkscape:window-y="24"
   inkscape:window-maximized="0"
   inkscape:current-layer="レイヤー_1" />
<rect
   style="fill:none"
   y="0"
   x="0"
   id="rect3153"
   height="48"
   width="48" />
<g
   id="g3187">
</g>
<g
   id="g3189">
</g>
<g
   id="g3191">
</g>
<g
   id="g3193">
</g>
<g
   id="g3195">
</g>
<g
   id="g3197">
</g>
<g
   id="g3199">
</g>
<g
   id="g3201">
</g>
<g
   id="g3203">
</g>
<g
   id="g3205">
</g>
<g
   id="g3207">
</g>
<g
   id="g3209">
</g>
<g
   id="g3211">
</g>
<g
   id="g3213">
</g>
<g
   id="g3215">
</g>
<path
   inkscape:connector-curvature="0"
   id="path3159"
   d="m 13.331877,19.85714 h 5.505241 v 1.0781 h -5.505241 v 1.42069 c 0.397251,-0.05086 0.756619,-0.07631 1.0781,-0.07631 1.048876,0 2.00412,0.249501 2.866818,0.7485 1.226393,0.718735 1.839048,1.691297 1.839048,2.917691 0,1.471563 -0.769608,2.579431 -2.308824,3.323603 -0.75283,0.372356 -1.568441,0.608867 -2.447916,0.710615 -0.152081,-0.414571 -0.291715,-0.760949 -0.418359,-1.040215 1.175519,-0.152082 2.143753,-0.486012 2.904702,-1.002331 0.727392,-0.499 1.09109,-1.16686 1.09109,-2.004121 0,-1.091088 -0.536886,-1.847707 -1.611198,-2.270396 -0.854037,1.59009 -1.868816,2.900372 -3.044335,3.932469 -0.947126,0.83726 -1.822272,1.255619 -2.625977,1.255619 -0.549874,0 -1.0061182,-0.207286 -1.3698152,-0.621315 -0.372356,-0.414571 -0.557993,-0.930348 -0.557993,-1.547334 0,-1.150082 0.511449,-2.152413 1.5348872,-3.00645 0.524437,-0.456785 1.200956,-0.820482 2.029557,-1.091091 V 20.935787 H 9.0319218 v -1.078101 h 3.2597402 v -1.255619 h 1.040215 v 1.255078 z m -1.040215,7.293957 v -3.551995 c -1.657743,0.701956 -2.4863432,1.74217 -2.4863432,3.120646 0,0.363697 0.1185259,0.646753 0.3550372,0.849707 0.160741,0.152083 0.350707,0.228393 0.570982,0.228393 0.414571,0 0.934678,-0.215403 1.560324,-0.646751 z m 1.040215,-3.84371 v 2.930139 c 0.862698,-0.862698 1.555993,-1.830932 2.080432,-2.904703 -0.380475,-0.07631 -0.68085,-0.114196 -0.900583,-0.114196 -0.313365,0 -0.706286,0.02978 -1.179849,0.08876 z"
   style="fill:#ffff00;fill-opacity:1;fill-rule:nonzero" /><g
   id="g11314"
   transform="matrix(0.0148473,0,0,-0.0148473,30.290166,29.615712)"
   style="fill:#f9f9f9"><path
     id="path11316"
     d="m 502,649 q -81,-79 -137,-79 -50,0 -50,48 0,18 11,29 7,8 60,36 45,24 84,60 42,38 70,38 65,0 65,-62 V 60 q 0,-63 -52,-63 -51,0 -51,63 v 589 z"
     inkscape:connector-curvature="0"
     style="fill:#f9f9f9" /></g><g
   id="g3992"
   transform="matrix(0.00770834,0,0,-0.00770834,21.82676,29.660254)"
   style="fill:#f9f9f9"><path
     id="path3994"
     d="M 984,388 H 371 L 228,0 H 39 L 601,1456 H 761 L 1314,0 H 1125 z M 426,537 h 504 l -250,690 z"
     inkscape:connector-curvature="0"
     style="fill:#f9f9f9" /></g></svg>