<?xml version="1.0" encoding="UTF-8" standalone="no"?>
<!-- Generator: Adobe Illustrator 16.0.0, SVG Export Plug-In . SVG Version: 6.00 Build 0)  -->

<svg
   xmlns:osb="http://www.openswatchbook.org/uri/2009/osb"
   xmlns:dc="http://purl.org/dc/elements/1.1/"
   xmlns:cc="http://creativecommons.org/ns#"
   xmlns:rdf="http://www.w3.org/1999/02/22-rdf-syntax-ns#"
   xmlns:svg="http://www.w3.org/2000/svg"
   xmlns="http://www.w3.org/2000/svg"
   xmlns:xlink="http://www.w3.org/1999/xlink"
   xmlns:sodipodi="http://sodipodi.sourceforge.net/DTD/sodipodi-0.dtd"
   xmlns:inkscape="http://www.inkscape.org/namespaces/inkscape"
   version="1.1"
   id="レイヤー_1"
   x="0px"
   y="0px"
   width="48px"
   height="48px"
   viewBox="0 0 48 48"
   enable-background="new 0 0 48 48"
   xml:space="preserve"
   inkscape:version="0.48.3.1 r9886"
   sodipodi:docname="moji_full1.svg"><metadata
   id="metadata3221"><rdf:RDF><cc:Work
       rdf:about=""><dc:format>image/svg+xml</dc:format><dc:type
         rdf:resource="http://purl.org/dc/dcmitype/StillImage" /></cc:Work></rdf:RDF></metadata><defs
   id="defs3219"><linearGradient
   id="linearGradient5927"
   osb:paint="solid"><stop
     style="stop-color:#000000;stop-opacity:1;"
     offset="0"
     id="stop5929" /></linearGradient><linearGradient
   id="linearGradient5921"
   osb:paint="solid"><stop
     style="stop-color:#030723;stop-opacity:0.17647059;"
     offset="0"
     id="stop5923" /></linearGradient><linearGradient
   id="linearGradient3929"
   osb:paint="solid"><stop
     style="stop-color:#000000;stop-opacity:1;"
     offset="0"
     id="stop3931" /></linearGradient>
	
	

		
		
	
			
		
			
			
			
			
		<linearGradient
   inkscape:collect="always"
   xlink:href="#linearGradient3929"
   id="linearGradient3933"
   x1="33.966103"
   y1="40.906781"
   x2="35.186442"
   y2="40.906781"
   gradientUnits="userSpaceOnUse"
   gradientTransform="translate(-1.779661,1.6779661)" /><linearGradient
   inkscape:collect="always"
   xlink:href="#linearGradient5921"
   id="linearGradient5925"
   x1="33.466103"
   y1="40.576268"
   x2="35.686442"
   y2="40.576268"
   gradientUnits="userSpaceOnUse" /><linearGradient
   inkscape:collect="always"
   xlink:href="#linearGradient5927"
   id="linearGradient5931"
   x1="33.466103"
   y1="40.576268"
   x2="35.686442"
   y2="40.576268"
   gradientUnits="userSpaceOnUse" /></defs><sodipodi:namedview
   pagecolor="#ffffff"
   bordercolor="#666666"
   borderopacity="1"
   objecttolerance="10"
   gridtolerance="10"
   guidetolerance="10"
   inkscape:pageopacity="0"
   inkscape:pageshadow="2"
   inkscape:window-width="800"
   inkscape:window-height="480"
   id="namedview3217"
   showgrid="false"
   inkscape:zoom="4.9166667"
   inkscape:cx="-15.933844"
   inkscape:cy="33.729019"
   inkscape:window-x="72"
   inkscape:window-y="24"
   inkscape:window-maximized="0"
   inkscape:current-layer="レイヤー_1" />
<rect
   style="fill:none"
   y="0"
   x="0"
   id="rect3153"
   height="48"
   width="48" />
<g
   id="g3187">
</g>
<g
   id="g3189">
</g>
<g
   id="g3191">
</g>
<g
   id="g3193">
</g>
<g
   id="g3195">
</g>
<g
   id="g3197">
</g>
<g
   id="g3199">
</g>
<g
   id="g3201">
</g>
<g
   id="g3203">
</g>
<g
   id="g3205">
</g>
<g
   id="g3207">
</g>
<g
   id="g3209">
</g>
<g
   id="g3211">
</g>
<g
   id="g3213">
</g>
<g
   id="g3215">
</g>
<path
   inkscape:connector-curvature="0"
   id="path3159"
   d="m 12.981586,19.796787 h 5.479776 v 1.073115 h -5.479776 v 1.414118 c 0.395414,-0.05063 0.753118,-0.07595 1.073114,-0.07595 1.044023,0 1.994849,0.248346 2.853557,0.745038 1.220719,0.71541 1.83054,1.683476 1.83054,2.904194 0,1.464759 -0.766047,2.567502 -2.298143,3.30823 -0.749348,0.370634 -1.561188,0.606051 -2.436594,0.707329 -0.151377,-0.412652 -0.290364,-0.757429 -0.416424,-1.035404 1.170082,-0.151378 2.133838,-0.483763 2.891266,-0.997693 0.724029,-0.496693 1.086043,-1.161464 1.086043,-1.994852 0,-1.086042 -0.534402,-1.83916 -1.603745,-2.259893 -0.850087,1.582733 -1.860171,2.886954 -3.030254,3.914279 -0.942745,0.833386 -1.813841,1.249811 -2.613829,1.249811 -0.5473306,0 -1.0014636,-0.206327 -1.3634786,-0.618441 -0.370633,-0.412653 -0.555412,-0.926047 -0.555412,-1.540178 0,-1.144761 0.509083,-2.142455 1.527786,-2.992544 0.5220136,-0.454672 1.1954026,-0.816688 2.0201706,-1.086041 v -1.64146 H 8.7015214 v -1.073112 h 3.2446616 v -1.249811 h 1.035403 v 1.249271 z m -1.035403,7.26022 V 23.52144 c -1.650075,0.69871 -2.4748416,1.734113 -2.4748416,3.106212 0,0.362015 0.117977,0.643761 0.353394,0.845778 0.159997,0.151378 0.3490846,0.227336 0.5683406,0.227336 0.412653,0 0.930356,-0.214408 1.553107,-0.643759 z m 1.035403,-3.825932 v 2.916586 c 0.858707,-0.858706 1.548795,-1.822462 2.070809,-2.891267 -0.378715,-0.07596 -0.677702,-0.113668 -0.896417,-0.113668 -0.311916,0 -0.703019,0.02964 -1.174392,0.08835 z"
   style="fill:#f9f9f9;fill-opacity:1;fill-rule:nonzero" /><g
   id="g11314"
   transform="matrix(0.01477863,0,0,-0.01477863,30.660702,29.66925)"
   style="fill:#ffff00"><path
     id="path11316"
     d="m 502,649 q -81,-79 -137,-79 -50,0 -50,48 0,18 11,29 7,8 60,36 45,24 84,60 42,38 70,38 65,0 65,-62 V 60 q 0,-63 -52,-63 -51,0 -51,63 v 589 z"
     inkscape:connector-curvature="0"
     style="fill:#ffff00" /></g><g
   id="g3992"
   transform="matrix(0.0076727,0,0,-0.0076727,21.836806,29.713586)"
   style="fill:#f9f9f9"><path
     id="path3994"
     d="M 984,388 H 371 L 228,0 H 39 L 601,1456 H 761 L 1314,0 H 1125 z M 426,537 h 504 l -250,690 z"
     inkscape:connector-curvature="0"
     style="fill:#f9f9f9" /></g></svg>